<!--
OpenAI logo SVG extracted from OpenCode at 830d5eb5354874105cc31599635a80c1662609e8
https://github.com/anomalyco/opencode/tree/830d5eb5354874105cc31599635a80c1662609e8/packages/ui/src/components/provider-icons

MIT License

Copyright (c) 2025 opencode

Permission is hereby granted, free of charge, to any person obtaining a copy
of this software and associated documentation files (the "Software"), to deal
in the Software without restriction, including without limitation the rights
to use, copy, modify, merge, publish, distribute, sublicense, and/or sell
copies of the Software, and to permit persons to whom the Software is
furnished to do so, subject to the following conditions:

The above copyright notice and this permission notice shall be included in all
copies or substantial portions of the Software.

THE SOFTWARE IS PROVIDED "AS IS", WITHOUT WARRANTY OF ANY KIND, EXPRESS OR
IMPLIED, INCLUDING BUT NOT LIMITED TO THE WARRANTIES OF MERCHANTABILITY,
FITNESS FOR A PARTICULAR PURPOSE AND NONINFRINGEMENT. IN NO EVENT SHALL THE
AUTHORS OR COPYRIGHT HOLDERS BE LIABLE FOR ANY CLAIM, DAMAGES OR OTHER
LIABILITY, WHETHER IN AN ACTION OF CONTRACT, TORT OR OTHERWISE, ARISING FROM,
OUT OF OR IN CONNECTION WITH THE SOFTWARE OR THE USE OR OTHER DEALINGS IN THE
SOFTWARE.

-->
<svg xmlns="http://www.w3.org/2000/svg"><defs><symbol id="openrouter" viewBox="12.509 9.888 380.182 272.920" fill="#7624F4">
  <path d="M303.9475,17.19926c42.79734,0,77.48933,34.69327,77.48933,77.48933s-34.69199,77.48933-77.48933,77.48933l76.86166,76.86244c9.76367,9.76313,2.84903,26.45667-10.95697,26.45667h-220.88335c-71.32686,0-129.14889-57.82202-129.14889-129.14889S77.64197,17.19926,148.96884,17.19926h154.97866ZM148.96884,68.85881c-42.79607,0-77.48933,34.69327-77.48933,77.48933s34.69327,77.48933,77.48933,77.48933,77.48933-34.69327,77.48933-77.48933-34.69327-77.48933-77.48933-77.48933Z"/>
</symbol>
    <symbol viewBox="4.620 4.400 30.655 31.200" id="openai">
      <path d="M32.8377 17.282C33.2127 16.25 33.3072 15.218 33.2127 14.1875C33.1197 13.1571 32.7447 12.1251 32.2752 11.1876C31.4322 9.78209 30.2127 8.6571 28.8072 8.0001C27.3072 7.34461 25.7127 7.15711 24.1197 7.53211C23.3698 6.78212 22.5253 6.12512 21.5878 5.65713C20.6503 5.18913 19.5253 5.00013 18.4948 5.00013C16.8851 4.99074 15.3125 5.48246 13.9948 6.40712C12.6824 7.34311 11.7449 8.6571 11.2754 10.1571C10.1504 10.4376 9.21289 10.9071 8.27539 11.4696C7.4324 12.1251 6.77541 12.9696 6.21291 13.8126C5.36992 15.2195 5.08792 16.8125 5.27542 18.407C5.46399 19.9968 6.11605 21.496 7.1504 22.718C6.79608 23.7086 6.66795 24.7659 6.77541 25.8124C6.86991 26.8444 7.2449 27.8749 7.7129 28.8124C8.55739 30.2194 9.77538 31.3444 11.1824 31.9999C12.6824 32.6569 14.2753 32.8444 15.8698 32.4694C16.6198 33.2194 17.4628 33.8749 18.4003 34.3444C19.3378 34.8139 20.4628 34.9999 21.4948 34.9999C23.1043 35.0097 24.6769 34.5185 25.9947 33.5944C27.3072 32.6569 28.2447 31.3444 28.7127 29.8444C29.7719 29.6432 30.7682 29.1934 31.6197 28.5319C32.4627 27.8749 33.2127 27.1249 33.6822 26.1874C34.5251 24.7819 34.8071 23.1875 34.6196 21.5945C34.4322 20 33.8697 18.5015 32.8377 17.282ZM21.5878 33.0304C20.0878 33.0304 18.9628 32.5609 17.9323 31.7179C17.9323 31.7179 18.0253 31.6234 18.1198 31.6234L24.1197 28.1554C24.2862 28.0803 24.4196 27.9469 24.4947 27.7804C24.5698 27.636 24.6021 27.4731 24.5877 27.3109V18.875L27.1197 20.375V27.3124C27.1455 28.0547 27.0215 28.7945 26.755 29.4878C26.4885 30.181 26.085 30.8134 25.5687 31.3473C25.0523 31.8811 24.4337 32.3054 23.7497 32.5949C23.0658 32.8843 22.3305 33.0314 21.5878 33.0304ZM9.49488 27.8749C8.83789 26.7499 8.55739 25.4374 8.83789 24.125C8.83789 24.125 8.93239 24.2195 9.02539 24.2195L15.0253 27.6874C15.1693 27.7638 15.3325 27.7966 15.4948 27.7819C15.6823 27.7819 15.8698 27.7819 15.9628 27.6874L23.2753 23.4695V26.3749L17.1823 29.9374C16.5506 30.3042 15.8527 30.5427 15.1287 30.6393C14.4046 30.7358 13.6686 30.6884 12.9629 30.4999C11.4629 30.1249 10.2449 29.1874 9.49488 27.8749ZM7.9004 14.8445C8.56239 13.7234 9.58826 12.8627 10.8074 12.4056V19.532C10.8074 19.718 10.8074 19.907 10.9004 20C10.9755 20.1665 11.1089 20.2998 11.2754 20.375L18.5878 24.5944L16.0573 26.0944L10.0574 22.625C9.41842 22.2639 8.85742 21.7797 8.40684 21.2004C7.95627 20.6211 7.62506 19.9582 7.4324 19.25C7.05741 17.8445 7.1504 16.157 7.9004 14.8445ZM28.6197 19.625L21.3073 15.407L23.8377 13.9071L29.8377 17.375C30.7752 17.9375 31.5252 18.6875 31.9947 19.625C32.4642 20.5625 32.7447 21.5945 32.6502 22.7195C32.5603 23.7755 32.1699 24.7837 31.5252 25.6249C30.8697 26.4694 30.0252 27.1249 28.9947 27.4999V20.375C28.9947 20.1875 28.9947 20 28.9002 19.907C28.9002 19.907 28.8072 19.718 28.6197 19.625ZM31.1502 15.875C31.1502 15.875 31.0572 15.782 30.9627 15.782L24.9627 12.3126C24.7752 12.2196 24.6822 12.2196 24.4947 12.2196C24.3072 12.2196 24.1197 12.2196 24.0252 12.3126L16.7128 16.532V13.6251L22.8073 10.0626C23.7448 9.50009 24.7752 9.31259 25.9002 9.31259C26.9322 9.31259 27.9627 9.68759 28.9002 10.3446C29.7447 11.0001 30.4947 11.8446 30.8697 12.7821C31.2447 13.7196 31.3377 14.8445 31.1502 15.875ZM15.4003 21.125L12.8699 19.625V12.5946C12.8699 11.5626 13.1503 10.4376 13.7128 9.59459C14.2753 8.6571 15.1198 8.0001 16.0573 7.53211C17.0127 7.05249 18.0956 6.88812 19.1503 7.06261C20.1823 7.15711 21.2128 7.62511 22.0573 8.2821C22.0573 8.2821 21.9628 8.3751 21.8698 8.3751L15.8698 11.8446C15.7033 11.9197 15.57 12.0531 15.4948 12.2196C15.4003 12.4071 15.4003 12.5001 15.4003 12.6876V21.125ZM16.7128 18.125L19.9948 16.25L23.2753 18.125V21.875L19.9948 23.75L16.7128 21.875V18.125Z" fill="currentColor" />
    </symbol>
    <symbol viewBox="-1.880 -1.880 97.760 92.760" id="inference">
<path d="M93.9997 6.10352e-05H70.981V89.0001H93.9997V6.10352e-05Z" fill="currentColor"/>
<path d="M59.2713 6.10352e-05H42.9434V89.0001H59.2713V6.10352e-05Z" fill="#FF4405"/>
<path d="M31.9893 6.10352e-05H19.4658V89.0001H31.9893V6.10352e-05Z" fill="#FAC515"/>
<path d="M8.95592 6.10352e-05H0V89.0001H8.95592V6.10352e-05Z" fill="#53B1FD"/>
</symbol>
    <symbol id="anthropic" viewBox="-0.480 3.061 24.960 17.878" fill="currentColor">
<path d="M17.304 3.541h-3.633l6.696 16.918h3.633l-6.696-16.918zM6.696 3.541L0 20.459h3.731l1.375-3.565h7.049l1.375 3.565h3.731L10.565 3.541H6.696zm-.837 10.396L8.63 7.754l2.771 6.183H5.859z" />
</symbol>
<symbol id="google" viewBox="0.560 0.560 22.880 22.880" fill="currentColor">
<path
        d="M22.56 12.25c0-.78-.07-1.53-.2-2.25H12v4.26h5.92c-.26 1.37-1.04 2.53-2.21 3.31v2.77h3.57c2.08-1.92 3.28-4.74 3.28-8.09z"
        fill="#4285F4"
      />
      <path
        d="M12 23c2.97 0 5.46-.98 7.28-2.66l-3.57-2.77c-.98.66-2.23 1.06-3.71 1.06-2.86 0-5.29-1.93-6.16-4.53H2.18v2.84C3.99 20.53 7.7 23 12 23z"
        fill="#34A853"
      />
      <path
        d="M5.84 14.09c-.22-.66-.35-1.36-.35-2.09s.13-1.43.35-2.09V7.07H2.18C1.43 8.55 1 10.22 1 12s.43 3.45 1.18 4.93l2.85-2.22.81-.62z"
        fill="#FBBC05"
      />
      <path
        d="M12 5.38c1.62 0 3.06.56 4.21 1.64l3.15-3.15C17.45 2.09 14.97 1 12 1 7.7 1 3.99 3.47 2.18 7.07l3.66 2.84c.87-2.6 3.3-4.53 6.16-4.53z"
        fill="#EA4335"
      />
      <path d="M1 1h22v22H1z" fill="none" />
</symbol>
<symbol id="deepseek" viewBox="-0.480 2.520 24.960 18.620"><path d="M23.748 4.482c-.254-.124-.364.113-.512.234-.051.039-.094.09-.137.136-.372.397-.806.657-1.373.626-.829-.046-1.537.214-2.163.848-.133-.782-.575-1.248-1.247-1.548-.352-.156-.708-.311-.955-.65-.172-.241-.219-.51-.305-.774-.055-.16-.11-.323-.293-.35-.2-.031-.278.136-.356.276-.313.572-.434 1.202-.422 1.84.027 1.436.633 2.58 1.838 3.393.137.093.172.187.129.323-.082.28-.18.552-.266.833-.055.179-.137.217-.329.14a5.526 5.526 0 01-1.736-1.18c-.857-.828-1.631-1.742-2.597-2.458a11.365 11.365 0 00-.689-.471c-.985-.957.13-1.743.388-1.836.27-.098.093-.432-.779-.428-.872.004-1.67.295-2.687.684a3.055 3.055 0 01-.465.137 9.597 9.597 0 00-2.883-.102c-1.885.21-3.39 1.102-4.497 2.623C.082 8.606-.231 10.684.152 12.85c.403 2.284 1.569 4.175 3.36 5.653 1.858 1.533 3.997 2.284 6.438 2.14 1.482-.085 3.133-.284 4.994-1.86.47.234.962.327 1.78.397.63.059 1.236-.03 1.705-.128.735-.156.684-.837.419-.961-2.155-1.004-1.682-.595-2.113-.926 1.096-1.296 2.746-2.642 3.392-7.003.05-.347.007-.565 0-.845-.004-.17.035-.237.23-.256a4.173 4.173 0 001.545-.475c1.396-.763 1.96-2.015 2.093-3.517.02-.23-.004-.467-.247-.588zM11.581 18c-2.089-1.642-3.102-2.183-3.52-2.16-.392.024-.321.471-.235.763.09.288.207.486.371.739.114.167.192.416-.113.603-.673.416-1.842-.14-1.897-.167-1.361-.802-2.5-1.86-3.301-3.307-.774-1.393-1.224-2.887-1.298-4.482-.02-.386.093-.522.477-.592a4.696 4.696 0 011.529-.039c2.132.312 3.946 1.265 5.468 2.774.868.86 1.525 1.887 2.202 2.891.72 1.066 1.494 2.082 2.48 2.914.348.292.625.514.891.677-.802.09-2.14.11-3.054-.614zm1-6.44a.306.306 0 01.415-.287.302.302 0 01.2.288.306.306 0 01-.31.307.303.303 0 01-.304-.308zm3.11 1.596c-.2.081-.399.151-.59.16a1.245 1.245 0 01-.798-.254c-.274-.23-.47-.358-.552-.758a1.73 1.73 0 01.016-.588c.07-.327-.008-.537-.239-.727-.187-.156-.426-.199-.688-.199a.559.559 0 01-.254-.078c-.11-.054-.2-.19-.114-.358.028-.054.16-.186.192-.21.356-.202.767-.136 1.146.016.352.144.618.408 1.001.782.391.451.462.576.685.914.176.265.336.537.445.848.067.195-.019.354-.25.452z" fill="#4D6BFE"></path></symbol>
<symbol id="mistral" viewBox="-0.480 2.949 24.960 18.103" fill="currentColor">
<path d="M17.143 3.429v3.428h-3.429v3.429h-3.428V6.857H6.857V3.43H3.43v13.714H0v3.428h10.286v-3.428H6.857v-3.429h3.429v3.429h3.429v-3.429h3.428v3.429h-3.428v3.428H24v-3.428h-3.43V3.429z" />
</symbol>
<symbol id="xai" viewBox="1.560 0.560 20.880 22.880" fill="currentColor" fill-rule="evenodd">
<path d="M6.469 8.776L16.512 23h-4.464L2.005 8.776H6.47zm-.004 7.9l2.233 3.164L6.467 23H2l4.465-6.324zM22 2.582V23h-3.659V7.764L22 2.582zM22 1l-9.952 14.095-2.233-3.163L17.533 1H22z" />
</symbol>

<symbol id="cerebras" fill="currentColor" viewBox="2.993 0.871 17.209 22.257"><path clip-rule="evenodd" d="M14.121 2.701a9.299 9.299 0 000 18.598V22.7c-5.91 0-10.7-4.791-10.7-10.701S8.21 1.299 14.12 1.299V2.7zm4.752 3.677A7.353 7.353 0 109.42 17.643l-.901 1.074a8.754 8.754 0 01-1.08-12.334 8.755 8.755 0 0112.335-1.08l-.901 1.075zm-2.255.844a5.407 5.407 0 00-5.048 9.563l-.656 1.24a6.81 6.81 0 016.358-12.043l-.654 1.24zM14.12 8.539a3.46 3.46 0 100 6.922v1.402a4.863 4.863 0 010-9.726v1.402z" fill="#F15A29" fill-rule="evenodd"></path><path d="M15.407 10.836a2.24 2.24 0 00-.51-.409 1.084 1.084 0 00-.544-.152c-.255 0-.483.047-.684.14a1.58 1.58 0 00-.84.912c-.074.203-.11.416-.11.631 0 .218.036.43.11.631a1.594 1.594 0 00.84.913c.2.093.43.14.684.14.216 0 .417-.046.602-.135.188-.09.35-.225.475-.392l.928 1.006c-.14.14-.3.261-.482.363a3.367 3.367 0 01-1.083.38c-.17.026-.317.04-.44.04a3.315 3.315 0 01-1.182-.21 2.825 2.825 0 01-.961-.597 2.816 2.816 0 01-.644-.929 2.987 2.987 0 01-.238-1.21c0-.444.08-.847.238-1.21.15-.35.368-.666.643-.929.278-.261.605-.464.962-.596a3.315 3.315 0 011.182-.21c.355 0 .712.068 1.072.204.361.138.685.36.944.649l-.962.97z"></path></symbol>
<symbol id="deepinfra" viewBox="0.520 -0.480 22.992 24.960"><path d="M3.294 7.821A2.297 2.297 0 011 5.527a2.297 2.297 0 012.294-2.295A2.297 2.297 0 015.59 5.527 2.297 2.297 0 013.294 7.82zm0-3.688a1.396 1.396 0 000 2.79 1.396 1.396 0 000-2.79zM3.294 14.293A2.297 2.297 0 011 11.998a2.297 2.297 0 012.294-2.294 2.297 2.297 0 012.295 2.294 2.297 2.297 0 01-2.295 2.295zm0-3.688a1.395 1.395 0 000 2.788 1.395 1.395 0 100-2.788zM3.294 20.761A2.297 2.297 0 011 18.467a2.297 2.297 0 012.294-2.295 2.297 2.297 0 012.295 2.295 2.297 2.297 0 01-2.295 2.294zm0-3.688a1.396 1.396 0 000 2.79 1.396 1.396 0 000-2.79zM20.738 7.821a2.297 2.297 0 01-2.295-2.294 2.297 2.297 0 012.294-2.295 2.297 2.297 0 012.295 2.295 2.297 2.297 0 01-2.294 2.294zm0-3.688a1.396 1.396 0 101.395 1.395c0-.77-.626-1.395-1.395-1.395zM20.738 14.293a2.297 2.297 0 01-2.295-2.295 2.297 2.297 0 012.294-2.294 2.297 2.297 0 012.295 2.294 2.297 2.297 0 01-2.294 2.295zm0-3.688c-.769 0-1.395.625-1.395 1.393a1.396 1.396 0 002.79 0c0-.77-.626-1.393-1.395-1.393zM20.738 20.761a2.297 2.297 0 01-2.295-2.294 2.297 2.297 0 012.294-2.295 2.297 2.297 0 012.295 2.295 2.297 2.297 0 01-2.294 2.294zm0-3.688a1.396 1.396 0 101.395 1.395c0-.77-.626-1.395-1.395-1.395zM12.016 11.057a2.297 2.297 0 01-2.294-2.294 2.297 2.297 0 012.294-2.295 2.297 2.297 0 012.295 2.295 2.297 2.297 0 01-2.295 2.294zm0-3.688a1.396 1.396 0 101.395 1.395c0-.77-.625-1.395-1.395-1.395zM12.017 4.589a2.297 2.297 0 01-2.295-2.295A2.297 2.297 0 0112.017 0a2.297 2.297 0 012.294 2.294 2.297 2.297 0 01-2.294 2.295zm0-3.688a1.396 1.396 0 101.395 1.395c0-.77-.626-1.395-1.395-1.395zM12.017 17.529a2.297 2.297 0 01-2.295-2.295 2.297 2.297 0 012.295-2.294 2.297 2.297 0 012.294 2.294 2.297 2.297 0 01-2.294 2.295zm0-3.688a1.396 1.396 0 101.395 1.395c0-.77-.626-1.395-1.395-1.395zM12.016 24a2.297 2.297 0 01-2.294-2.295 2.297 2.297 0 012.294-2.294 2.297 2.297 0 012.295 2.294A2.297 2.297 0 0112.016 24zm0-3.688a1.396 1.396 0 101.395 1.395c0-.77-.625-1.395-1.395-1.395z" fill="#2A3275"></path><path d="M8.363 8.222a.742.742 0 01-.277-.053l-1.494-.596a.75.75 0 11.557-1.392l1.493.595a.75.75 0 01-.278 1.446h-.001zM8.363 14.566a.743.743 0 01-.277-.053l-1.494-.595a.75.75 0 11.557-1.393l1.493.596a.75.75 0 01-.278 1.445h-.001zM17.124 11.397a.741.741 0 01-.277-.054l-1.493-.595a.75.75 0 11.555-1.392l1.493.595a.75.75 0 01-.278 1.446zM17.124 5.05a.744.744 0 01-.277-.054L15.354 4.4a.75.75 0 01.555-1.392l1.493.596a.75.75 0 01-.278 1.445zM17.124 17.739a.743.743 0 01-.277-.053l-1.494-.596a.75.75 0 11.556-1.392l1.493.596a.75.75 0 01-.278 1.445zM6.91 17.966a.75.75 0 01-.279-1.445l1.494-.595a.749.749 0 11.556 1.392l-1.493.595a.743.743 0 01-.277.053H6.91zM6.91 11.66a.75.75 0 01-.279-1.446l1.494-.595a.75.75 0 01.556 1.392l-1.493.595a.743.743 0 01-.277.053H6.91zM6.91 5.033a.75.75 0 01-.279-1.446l1.494-.595a.75.75 0 01.556 1.392l-1.493.596a.744.744 0 01-.277.053H6.91zM8.363 21.364a.743.743 0 01-.277-.053l-1.494-.596a.75.75 0 01.555-1.392l1.494.595a.75.75 0 01-.278 1.446zM15.63 8.223a.75.75 0 01-.278-1.447l1.494-.595a.75.75 0 01.556 1.393l-1.494.595a.744.744 0 01-.276.054h-.002zM15.63 14.567a.75.75 0 01-.278-1.446l1.494-.596a.75.75 0 01.556 1.394l-1.494.595a.743.743 0 01-.276.053h-.002zM15.63 21.363a.749.749 0 01-.278-1.445l1.494-.595a.75.75 0 11.555 1.392l-1.494.595a.741.741 0 01-.277.053z" fill="#5699DB"></path></symbol>
<symbol id="fireworks-ai" viewBox="-0.480 4.520 24.960 12.960"><path clip-rule="evenodd" d="M14.8 5l-2.801 6.795L9.195 5H7.397l3.072 7.428a1.64 1.64 0 003.038.002L16.598 5H14.8zm1.196 10.352l5.124-5.244-.699-1.669-5.596 5.739a1.664 1.664 0 00-.343 1.807 1.642 1.642 0 001.516 1.012L16 17l8-.02-.699-1.669-7.303.041h-.002zM2.88 10.104l.699-1.669 5.596 5.739c.468.479.603 1.189.343 1.807a1.643 1.643 0 01-1.516 1.012l-8-.018-.002.002.699-1.669 7.303.042-5.122-5.246z" fill="#5019C5" fill-rule="evenodd"></path></symbol>
<symbol id="groq" viewBox="8.530 3.880 22.940 32.240">
<path d="M20.056 4.50022C14.0839 4.44597 9.20616 9.15015 9.15036 15.0106C9.09611 20.8726 13.8855 25.6621 19.8576 25.7163H23.6085V21.7391H20.056C16.3252 21.7825 13.2671 18.8468 13.2237 15.1827C13.1787 11.5216 16.1702 8.52086 19.901 8.47746H20.056C23.7868 8.47746 26.8108 11.4457 26.8216 15.1083V24.8809C26.8216 28.5109 23.8085 31.4683 20.1211 31.5132C18.3617 31.5007 16.6759 30.8049 15.42 29.5726L12.551 32.3905C14.5529 34.3571 17.239 35.4715 20.0451 35.4998H20.1877C26.0823 35.413 30.8175 30.7212 30.85 24.9351V14.8603C30.7059 9.0928 25.9165 4.50022 20.056 4.50022Z" fill="#F55036"/>
</symbol>
<symbol id="togetherai" viewBox="-0.481 1.020 25.016 23.356"><path d="M23.197 4.503A6 6 0 0015 2.307a5.973 5.973 0 00-2.995 4.933l5.996.008v.515h-5.996c.039.937.298 1.87.8 2.74a6 6 0 1010.39-6z" fill="#EF2CC1"></path><path d="M.805 4.5A6 6 0 003 12.697a5.972 5.972 0 005.77.127L5.779 7.627l.446-.257 2.997 5.192A6 6 0 10.804 4.5z" fill="#CAAEF5"></path><path d="M12 23.894a6 6 0 005.999-6c0-2.13-1.1-3.996-2.775-5.06l-3.005 5.189-.444-.258 2.997-5.192A6 6 0 1012 23.894z" fill="#FC4C02"></path></symbol>
</defs><symbol id="openrouter-dark" viewBox="12.509 9.888 380.182 272.920" fill="#C8FF00">
  <path d="M303.9475,17.19926c42.79734,0,77.48933,34.69327,77.48933,77.48933s-34.69199,77.48933-77.48933,77.48933l76.86166,76.86244c9.76367,9.76313,2.84903,26.45667-10.95697,26.45667h-220.88335c-71.32686,0-129.14889-57.82202-129.14889-129.14889S77.64197,17.19926,148.96884,17.19926h154.97866ZM148.96884,68.85881c-42.79607,0-77.48933,34.69327-77.48933,77.48933s34.69327,77.48933,77.48933,77.48933,77.48933-34.69327,77.48933-77.48933-34.69327-77.48933-77.48933-77.48933Z"/>
</symbol></svg>